<svg xmlns="http://www.w3.org/2000/svg" width="62.945" height="40.056" viewBox="0 0 62.945 40.056">
  <path id="ic_people_24px" d="M43.917,22.167a8.583,8.583,0,1,0-8.583-8.583A8.548,8.548,0,0,0,43.917,22.167Zm-22.889,0a8.583,8.583,0,1,0-8.583-8.583A8.548,8.548,0,0,0,21.028,22.167Zm0,5.722C14.362,27.889,1,31.237,1,37.9v7.153H41.056V37.9C41.056,31.237,27.695,27.889,21.028,27.889Zm22.889,0c-.83,0-1.774.057-2.775.143,3.319,2.4,5.636,5.636,5.636,9.871v7.153H63.945V37.9C63.945,31.237,50.584,27.889,43.917,27.889Z" transform="translate(-1 -5)" fill="#e2e4e5"/>
</svg>
